<svg width="315" height="80" viewBox="0 0 315 80" fill="none" xmlns="http://www.w3.org/2000/svg">
<g filter="url(#filter0_d_832_1126)">
<rect x="4" width="307" height="72" rx="36" fill="white" shape-rendering="crispEdges"/>
<path d="M51.2475 28.4805C50.3141 28.4805 49.5808 29.2305 49.5808 30.1471C49.5808 31.0638 50.3308 31.8138 51.2475 31.8138C52.1641 31.8138 52.9141 31.0638 52.9141 30.1471C52.9141 29.2305 52.1641 28.4805 51.2475 28.4805Z" fill="#FF5722"/>
<path d="M71.7666 24.3999C70.3666 21.1499 67.2833 19.3333 62.9833 19.3333H49.0166C43.6666 19.3333 39.3333 23.6666 39.3333 29.0166V42.9833C39.3333 47.2833 41.1499 50.3666 44.3999 51.7666C44.7166 51.8999 45.0833 51.8166 45.3166 51.5833L71.5833 25.3166C71.8333 25.0666 71.9166 24.6999 71.7666 24.3999ZM53.5499 36.3999C52.8999 37.0333 52.0499 37.3333 51.1999 37.3333C50.3499 37.3333 49.4999 37.0166 48.8499 36.3999C47.1499 34.7999 45.2833 32.2499 45.9999 29.2166C46.6333 26.4666 49.0666 25.2333 51.1999 25.2333C53.3333 25.2333 55.7666 26.4666 56.3999 29.2333C57.0999 32.2499 55.2333 34.7999 53.5499 36.3999Z" fill="#FF5722"/>
<path d="M68.4482 50.2159C68.8148 50.5826 68.7648 51.1826 68.3148 51.4326C66.8482 52.2492 65.0648 52.6659 62.9815 52.6659H49.0149C48.5315 52.6659 48.3315 52.0992 48.6649 51.7659L58.7315 41.6992C59.0648 41.3659 59.5815 41.3659 59.9148 41.6992L68.4482 50.2159Z" fill="#FF5722"/>
<path d="M72.6696 29.0149V42.9815C72.6696 45.0648 72.2529 46.8648 71.4363 48.3148C71.1863 48.7648 70.5863 48.7982 70.2196 48.4482L61.6863 39.9148C61.3529 39.5815 61.3529 39.0648 61.6863 38.7315L71.7529 28.6649C72.1029 28.3315 72.6696 28.5315 72.6696 29.0149Z" fill="#FF5722"/>
<path d="M97.06 35.122H99.567C101.154 35.122 102.12 34.202 102.12 32.799C102.12 31.35 101.154 30.453 99.567 30.453H97.06V35.122ZM99.958 37.859H97.037V44H93.863V27.693H99.958C103.178 27.693 105.317 29.832 105.317 32.776C105.317 35.743 103.178 37.859 99.958 37.859ZM106.487 40.918C106.487 38.894 107.982 37.767 109.868 37.491L112.651 37.077C113.295 36.985 113.502 36.663 113.502 36.272C113.502 35.467 112.881 34.8 111.593 34.8C110.259 34.8 109.523 35.651 109.431 36.64L106.717 36.065C106.901 34.294 108.534 32.339 111.57 32.339C115.158 32.339 116.492 34.363 116.492 36.64V42.206C116.492 42.804 116.561 43.609 116.63 44H113.824C113.755 43.701 113.709 43.08 113.709 42.643C113.134 43.54 112.053 44.322 110.374 44.322C107.959 44.322 106.487 42.689 106.487 40.918ZM111.018 42.045C112.306 42.045 113.502 41.424 113.502 39.423V38.917L110.949 39.308C110.167 39.423 109.546 39.86 109.546 40.734C109.546 41.401 110.029 42.045 111.018 42.045ZM126.475 32.638V35.72C126.13 35.651 125.831 35.628 125.555 35.628C123.991 35.628 122.634 36.387 122.634 38.825V44H119.575V32.684H122.542V34.363C123.232 32.868 124.796 32.592 125.762 32.592C126.015 32.592 126.245 32.615 126.475 32.638ZM128.005 40.918C128.005 38.894 129.5 37.767 131.386 37.491L134.169 37.077C134.813 36.985 135.02 36.663 135.02 36.272C135.02 35.467 134.399 34.8 133.111 34.8C131.777 34.8 131.041 35.651 130.949 36.64L128.235 36.065C128.419 34.294 130.052 32.339 133.088 32.339C136.676 32.339 138.01 34.363 138.01 36.64V42.206C138.01 42.804 138.079 43.609 138.148 44H135.342C135.273 43.701 135.227 43.08 135.227 42.643C134.652 43.54 133.571 44.322 131.892 44.322C129.477 44.322 128.005 42.689 128.005 40.918ZM132.536 42.045C133.824 42.045 135.02 41.424 135.02 39.423V38.917L132.467 39.308C131.685 39.423 131.064 39.86 131.064 40.734C131.064 41.401 131.547 42.045 132.536 42.045ZM151.835 27.348V41.953C151.835 42.712 151.881 43.54 151.927 44H149.006C148.96 43.77 148.891 43.218 148.891 42.689C148.385 43.586 147.235 44.276 145.717 44.276C142.497 44.276 140.197 41.746 140.197 38.319C140.197 35.007 142.428 32.408 145.625 32.408C147.58 32.408 148.5 33.213 148.822 33.811V27.348H151.835ZM143.279 38.319C143.279 40.343 144.475 41.539 146.085 41.539C147.649 41.539 148.868 40.343 148.868 38.296C148.868 36.272 147.649 35.145 146.085 35.145C144.521 35.145 143.279 36.295 143.279 38.319ZM158.213 44H155.154V32.684H158.213V44ZM154.786 28.981C154.786 27.923 155.637 27.072 156.672 27.072C157.73 27.072 158.558 27.923 158.558 28.981C158.558 29.993 157.73 30.844 156.672 30.844C155.637 30.844 154.786 29.993 154.786 28.981ZM160.521 40.849L163.143 40.274C163.212 41.171 163.879 41.999 165.213 41.999C166.225 41.999 166.708 41.47 166.708 40.872C166.708 40.366 166.363 39.952 165.489 39.768L163.994 39.423C161.809 38.94 160.82 37.629 160.82 36.042C160.82 34.018 162.614 32.339 165.052 32.339C168.272 32.339 169.353 34.386 169.491 35.605L166.938 36.18C166.846 35.513 166.363 34.662 165.075 34.662C164.27 34.662 163.626 35.145 163.626 35.789C163.626 36.341 164.04 36.686 164.661 36.801L166.271 37.146C168.502 37.606 169.629 38.963 169.629 40.619C169.629 42.459 168.203 44.345 165.236 44.345C161.832 44.345 160.659 42.137 160.521 40.849ZM174.275 37.054H179.335C179.289 35.927 178.553 34.823 176.805 34.823C175.218 34.823 174.344 36.019 174.275 37.054ZM179.634 39.998L182.187 40.757C181.612 42.712 179.818 44.345 177.035 44.345C173.93 44.345 171.193 42.114 171.193 38.296C171.193 34.685 173.861 32.339 176.759 32.339C180.255 32.339 182.348 34.57 182.348 38.204C182.348 38.641 182.302 39.101 182.302 39.147H174.206C174.275 40.642 175.54 41.723 177.058 41.723C178.484 41.723 179.266 41.01 179.634 39.998ZM195.523 41.562C197.018 41.562 198.398 40.481 198.398 38.342C198.398 36.203 197.018 35.122 195.523 35.122C194.028 35.122 192.648 36.203 192.648 38.342C192.648 40.458 194.028 41.562 195.523 41.562ZM195.523 32.339C198.904 32.339 201.457 34.846 201.457 38.342C201.457 41.815 198.904 44.345 195.523 44.345C192.142 44.345 189.589 41.815 189.589 38.342C189.589 34.846 192.142 32.339 195.523 32.339ZM206.93 37.491V44H203.871V32.684H206.838V34.087C207.528 32.914 208.885 32.385 210.104 32.385C212.91 32.385 214.198 34.386 214.198 36.87V44H211.139V37.399C211.139 36.134 210.518 35.145 209.046 35.145C207.712 35.145 206.93 36.18 206.93 37.491ZM233.428 44H223.216V27.693H233.428V30.683H226.39V34.409H232.761V37.238H226.39V41.01H233.428V44ZM235.547 40.918C235.547 38.894 237.042 37.767 238.928 37.491L241.711 37.077C242.355 36.985 242.562 36.663 242.562 36.272C242.562 35.467 241.941 34.8 240.653 34.8C239.319 34.8 238.583 35.651 238.491 36.64L235.777 36.065C235.961 34.294 237.594 32.339 240.63 32.339C244.218 32.339 245.552 34.363 245.552 36.64V42.206C245.552 42.804 245.621 43.609 245.69 44H242.884C242.815 43.701 242.769 43.08 242.769 42.643C242.194 43.54 241.113 44.322 239.434 44.322C237.019 44.322 235.547 42.689 235.547 40.918ZM240.078 42.045C241.366 42.045 242.562 41.424 242.562 39.423V38.917L240.009 39.308C239.227 39.423 238.606 39.86 238.606 40.734C238.606 41.401 239.089 42.045 240.078 42.045ZM255.536 32.638V35.72C255.191 35.651 254.892 35.628 254.616 35.628C253.052 35.628 251.695 36.387 251.695 38.825V44H248.636V32.684H251.603V34.363C252.293 32.868 253.857 32.592 254.823 32.592C255.076 32.592 255.306 32.615 255.536 32.638ZM261.909 29.303V32.684H264.186V35.398H261.909V40.136C261.909 41.125 262.369 41.447 263.243 41.447C263.611 41.447 264.025 41.401 264.186 41.355V43.885C263.91 44 263.358 44.161 262.461 44.161C260.253 44.161 258.873 42.85 258.873 40.665V35.398H256.826V32.684H257.401C258.597 32.684 259.149 31.902 259.149 30.89V29.303H261.909ZM269.282 37.353V44H266.223V27.348H269.282V33.627C270.018 32.753 271.26 32.385 272.341 32.385C275.216 32.385 276.55 34.386 276.55 36.87V44H273.491V37.399C273.491 36.134 272.87 35.145 271.398 35.145C270.11 35.145 269.351 36.111 269.282 37.353Z" fill="#191825"/>
</g>
<defs>
<filter id="filter0_d_832_1126" x="0" y="0" width="315" height="80" filterUnits="userSpaceOnUse" color-interpolation-filters="sRGB">
<feFlood flood-opacity="0" result="BackgroundImageFix"/>
<feColorMatrix in="SourceAlpha" type="matrix" values="0 0 0 0 0 0 0 0 0 0 0 0 0 0 0 0 0 0 127 0" result="hardAlpha"/>
<feOffset dy="4"/>
<feGaussianBlur stdDeviation="2"/>
<feComposite in2="hardAlpha" operator="out"/>
<feColorMatrix type="matrix" values="0 0 0 0 0 0 0 0 0 0 0 0 0 0 0 0 0 0 0.25 0"/>
<feBlend mode="normal" in2="BackgroundImageFix" result="effect1_dropShadow_832_1126"/>
<feBlend mode="normal" in="SourceGraphic" in2="effect1_dropShadow_832_1126" result="shape"/>
</filter>
</defs>
</svg>
